{"title":"Naruto Shippuuden - 356 [Hi10 720p] [ENG SUBBED] [GWC].mp4","uid":9797099,"size":85174570,"categoryP":"video","categoryS":"tv_shows","magnet":"?xt=urn:btih:73138ec792c6cd4d2a04b4c8644ea1604a2d5f38&amp;dn=Naruto+Shippuuden+-+356+%5BHi10+720p%5D+%5BENG+SUBBED%5D+%5BGWC%5D.mp4&amp;tr=udp%3A%2F%2Ftracker.openbittorrent.com%3A80&amp;tr=udp%3A%2F%2Fopen.demonii.com%3A1337&amp;tr=udp%3A%2F%2Ftracker.coppersurfer.tk%3A6969&amp;tr=udp%3A%2F%2Fexodus.desync.com%3A6969","seeders":1,"leechers":0,"uploader":"canc232","files":1,"time":1395333638,"description":"Naruto Shippuuden 356 [Hi10 720p] [ENG SUBBED] [GWC]\n\n\nSTORYLINE :\nNaruto Uzumaki, is a loud, hyperactive, adolescent ninja who constantly searches for approval and recognition, as well as to become Hokage, who is acknowledged as the leader and strongest of all ninja in the village.\n\n\nTHUMBNAIL IMAGE : &lt;a href=&quot;\nhttp://img706.imageshack.us/img706/5629/onzo.jpg&quot; rel=&quot;nofollow&quot; target=&quot;_NEW&quot;&gt;\nhttp://img706.imageshack.us/img706/5629/onzo.jpg&lt;/a&gt;\n\n\nMEDIA INFO :\nGeneral \nFormat : MPEG-4 \nFormat profile : Base Media \nFile size : 81.2 MiB \nDuration : 21mn 39s \nOverall bit rate mode : Variable \nOverall bit rate : 525 Kbps \n\nVideo \nFormat : AVC \nFormat profile : High &lt;a class=&quot;__cf_email__&quot; href=&quot;/cdn-cgi/l/email-protection&quot; data-cfemail=&quot;daebea9a96eef4eb&quot;&gt;[email&amp;#160;protected]&lt;/a&gt;&lt;script cf-hash='f9e31' type=&quot;text/javascript&quot;&gt;\n/* &lt;![CDATA[ */!function(){try{var t=&quot;currentScript&quot;in document?document.currentScript:function(){for(var t=document.getElementsByTagName(&quot;script&quot;),e=t.length;e--;)if(t[e].getAttribute(&quot;cf-hash&quot;))return t[e]}();if(t&amp;&amp;t.previousSibling){var e,r,n,i,c=t.previousSibling,a=c.getAttribute(&quot;data-cfemail&quot;);if(a){for(e=&quot;&quot;,r=parseInt(a.substr(0,2),16),n=2;a.length-n;n+=2)i=parseInt(a.substr(n,2),16)^r,e+=String.fromCharCode(i);e=document.createTextNode(e),c.parentNode.replaceChild(e,c)}}}catch(u){}}();/* ]]&gt; */&lt;/script&gt; \nFormat settings, CABAC : Yes \nFormat settings, ReFrames : 10 frames \nDuration : 21mn 39s \nBit rate : 446 Kbps\nWidth : 1 280 pixels \nHeight : 720 pixels \nDisplay aspect ratio : 16:9 \nFrame rate mode : Variable \nStream size : 69.1 MiB (85%) \nTitle : Naruto Shippuuden 356 [Hi10 720p] [ENG SUBBED] [GWC] \nWriting library : x264 core\n\nAudio \nFormat : AAC \nFormat profile : HE-AAC / LC \nDuration : 21mn 38s \nBit rate mode : Variable \nChannel(s) : 2 channels \nSampling rate : 48.0 KHz / 24.0 KHz \nStream size : 11.4 MiB (14%) \nLanguage : Japanese \n\nText \nFormat : Timed Text \nDuration : 21mn 35s \nTitle : [GWC] \nLanguage : English","torrent":{"xt":"urn:btih:73138ec792c6cd4d2a04b4c8644ea1604a2d5f38","amp;dn":"Naruto+Shippuuden+-+356+%5BHi10+720p%5D+%5BENG+SUBBED%5D+%5BGWC%5D.mp4","amp;tr":["udp%3A%2F%2Ftracker.openbittorrent.com%3A80","udp%3A%2F%2Fopen.demonii.com%3A1337","udp%3A%2F%2Ftracker.coppersurfer.tk%3A6969","udp%3A%2F%2Fexodus.desync.com%3A6969"],"infoHash":"73138ec792c6cd4d2a04b4c8644ea1604a2d5f38","infoHashBuffer":{"type":"Buffer","data":[115,19,142,199,146,198,205,77,42,4,180,200,100,78,161,96,74,45,95,56]},"announce":[],"urlList":[]}}